<svg xmlns="http://www.w3.org/2000/svg" width="24" height="24" viewBox="0 0 24 24" fill="none">
  <path fill-rule="evenodd" clip-rule="evenodd" d="M3 5C3 3.89543 3.89543 3 5 3H9C10.1046 3 11 3.89543 11 5V9C11 10.1046 10.1046 11 9 11H5C3.89543 11 3 10.1046 3 9V5ZM5 5.5C5 5.22386 5.22386 5 5.5 5H8.5C8.77614 5 9 5.22386 9 5.5V8.5C9 8.77614 8.77614 9 8.5 9H5.5C5.22386 9 5 8.77614 5 8.5V5.5Z" fill="currentColor"/>
  <path fill-rule="evenodd" clip-rule="evenodd" d="M3 15C3 13.8954 3.89543 13 5 13H9C10.1046 13 11 13.8954 11 15V19C11 20.1046 10.1046 21 9 21H5C3.89543 21 3 20.1046 3 19V15ZM5 15.5C5 15.2239 5.22386 15 5.5 15H8.5C8.77614 15 9 15.2239 9 15.5V18.5C9 18.7761 8.77614 19 8.5 19H5.5C5.22386 19 5 18.7761 5 18.5V15.5Z" fill="currentColor"/>
  <path fill-rule="evenodd" clip-rule="evenodd" d="M15 3C13.8954 3 13 3.89543 13 5V9C13 10.1046 13.8954 11 15 11H19C20.1046 11 21 10.1046 21 9V5C21 3.89543 20.1046 3 19 3H15ZM19 5.5C19 5.22386 18.7761 5 18.5 5H15.5C15.2239 5 15 5.22386 15 5.5V8.5C15 8.77614 15.2239 9 15.5 9H18.5C18.7761 9 19 8.77614 19 8.5V5.5Z" fill="currentColor"/>
  <path fill-rule="evenodd" clip-rule="evenodd" d="M13 15C13 13.8954 13.8954 13 15 13H19C20.1046 13 21 13.8954 21 15V19C21 20.1046 20.1046 21 19 21H15C13.8954 21 13 20.1046 13 19V15ZM15 15.5C15 15.2239 15.2239 15 15.5 15H18.5C18.7761 15 19 15.2239 19 15.5V18.5C19 18.7761 18.7761 19 18.5 19H15.5C15.2239 19 15 18.7761 15 18.5V15.5Z" fill="currentColor"/>
</svg>
