<svg xmlns="http://www.w3.org/2000/svg" width="20" height="20" viewBox="0 0 20 20" fill="none">
  <g clip-path="url(#clip0_2052_15786)">
    <path d="M14.1918 5.8082C14.1098 5.72605 14.0065 5.6684 13.8935 5.64172C13.7805 5.61504 13.6623 5.62037 13.5522 5.65714L7.9272 7.53214C7.8352 7.56287 7.75161 7.61456 7.68302 7.68315C7.61444 7.75173 7.56274 7.83533 7.53201 7.92732L5.65701 13.5523C5.62026 13.6625 5.61492 13.7806 5.64158 13.8936C5.66823 14.0066 5.72584 14.11 5.80794 14.1921C5.89003 14.2742 5.99337 14.3318 6.10637 14.3584C6.21937 14.3851 6.33756 14.3798 6.4477 14.343L12.0727 12.468C12.1647 12.4373 12.2483 12.3855 12.3169 12.317C12.3855 12.2484 12.4372 12.1648 12.4679 12.0728L14.3429 6.44776C14.3796 6.33764 14.3849 6.21948 14.3582 6.10652C14.3315 5.99356 14.2739 5.89026 14.1918 5.8082ZM7.23814 12.7619L8.61901 8.61914L11.3812 11.3813L7.23814 12.7619Z" fill="currentColor"/>
    <path d="M10 18.75C8.26942 18.75 6.57769 18.2368 5.13876 17.2754C3.69983 16.3139 2.57832 14.9473 1.91606 13.3485C1.25379 11.7496 1.08051 9.9903 1.41813 8.29296C1.75575 6.59563 2.58911 5.03653 3.81282 3.81282C5.03653 2.58911 6.59563 1.75575 8.29296 1.41813C9.9903 1.08051 11.7496 1.25379 13.3485 1.91606C14.9473 2.57832 16.3139 3.69983 17.2754 5.13876C18.2368 6.57769 18.75 8.26942 18.75 10C18.7474 12.3198 17.8247 14.5439 16.1843 16.1843C14.5439 17.8247 12.3198 18.7474 10 18.75ZM10 2.5C8.51664 2.5 7.0666 2.93987 5.83323 3.76398C4.59986 4.58809 3.63856 5.75943 3.07091 7.12988C2.50325 8.50032 2.35473 10.0083 2.64411 11.4632C2.9335 12.918 3.64781 14.2544 4.6967 15.3033C5.7456 16.3522 7.08197 17.0665 8.53683 17.3559C9.99168 17.6453 11.4997 17.4968 12.8701 16.9291C14.2406 16.3614 15.4119 15.4001 16.236 14.1668C17.0601 12.9334 17.5 11.4834 17.5 10C17.4977 8.01158 16.7068 6.10524 15.3008 4.69921C13.8948 3.29317 11.9884 2.50227 10 2.5Z" fill="currentColor"/>
  </g>
  <defs>
    <clipPath id="clip0_2052_15786">
      <rect width="20" height="20" fill="white"/>
    </clipPath>
  </defs>
</svg>
