<svg xmlns="http://www.w3.org/2000/svg" width="24" height="24" viewBox="0 0 24 24" fill="none">
  <path fill-rule="evenodd" clip-rule="evenodd" d="M6.40011 2.93332C6.35885 2.93332 6.31929 2.94971 6.29011 2.97888C6.26094 3.00806 6.24455 3.04762 6.24455 3.08888V13.9333C6.24455 14.191 6.03562 14.3999 5.77789 14.3999C5.52016 14.3999 5.31123 14.191 5.31123 13.9333V3.08888C5.31123 2.80009 5.42595 2.52313 5.63015 2.31893C5.83436 2.11472 6.11132 2 6.40011 2H13.8666C13.8695 2 13.8725 2.00003 13.8755 2.00008C13.9656 2.00177 14.0527 2.0295 14.1266 2.07905C14.1516 2.09582 14.1751 2.11508 14.1967 2.13668L18.5522 6.49219C18.5799 6.51988 18.6037 6.55069 18.6234 6.5838C18.6507 6.62972 18.6704 6.68073 18.6807 6.73508C18.6861 6.76359 18.6889 6.79274 18.6889 6.82217V13.9333C18.6889 14.191 18.4799 14.3999 18.2222 14.3999C17.9645 14.3999 17.7555 14.191 17.7555 13.9333V7.28884H13.8666C13.6089 7.28884 13.4 7.0799 13.4 6.82217V2.93332H6.40011ZM14.3333 3.5932V6.35551H17.0956L14.3333 3.5932ZM11.2223 17.9776C11.2223 17.7919 11.2874 17.6726 11.3801 17.5931C11.4805 17.5071 11.6552 17.4333 11.9216 17.4332C12.2418 17.4342 12.5532 17.5381 12.8099 17.7295C13.0165 17.8836 13.3089 17.841 13.463 17.6344C13.6171 17.4278 13.5745 17.1355 13.3679 16.9814C12.9506 16.6701 12.4441 16.5013 11.9235 16.4999L11.9223 16.4999C11.489 16.4999 11.0806 16.6205 10.7727 16.8844C10.4572 17.1549 10.2889 17.5412 10.2889 17.9776C10.2889 18.2127 10.3536 18.4248 10.4777 18.6058C10.5978 18.7807 10.7573 18.9033 10.9141 18.9923C11.1943 19.1514 11.5471 19.2447 11.8291 19.3193L11.8802 19.3328C12.2072 19.4197 12.448 19.4898 12.6127 19.5902C12.7435 19.6699 12.7778 19.7345 12.7778 19.8443C12.7778 20.0849 12.6944 20.1844 12.5943 20.2485C12.4604 20.3341 12.2349 20.3887 11.9229 20.3887C11.6027 20.3878 11.2913 20.2839 11.0346 20.0924C10.828 19.9383 10.5356 19.9809 10.3815 20.1875C10.2274 20.3941 10.27 20.6865 10.4766 20.8406C10.8939 21.1519 11.4004 21.3207 11.921 21.3221L11.9223 21.3221C12.3099 21.3221 12.7453 21.2599 13.0974 21.0346C13.4834 20.7875 13.7111 20.3814 13.7111 19.8443C13.7111 19.3319 13.4343 18.9979 13.0984 18.7932C12.8002 18.6115 12.4244 18.5117 12.1307 18.4337L12.1198 18.4308C11.7872 18.3424 11.5441 18.2767 11.3749 18.1807C11.2984 18.1372 11.2634 18.1012 11.2473 18.0778C11.2354 18.0603 11.2223 18.0342 11.2223 17.9776ZM15.2427 16.6136C15.4806 16.5145 15.7538 16.627 15.8529 16.8649L16.9777 19.5643L18.1025 16.8649C18.2016 16.627 18.4748 16.5145 18.7127 16.6136C18.9506 16.7127 19.0631 16.9859 18.964 17.2238L17.4084 20.9571C17.336 21.131 17.1661 21.2443 16.9777 21.2443C16.7893 21.2443 16.6194 21.131 16.5469 20.9571L14.9914 17.2238C14.8922 16.9859 15.0047 16.7127 15.2427 16.6136ZM7.17588 17.511C6.52298 17.5121 5.93332 18.0959 5.93332 18.911C5.93332 19.7261 6.52298 20.3098 7.17588 20.311C7.46329 20.3082 7.73959 20.1994 7.95176 20.0054C8.14198 19.8315 8.43716 19.8447 8.61106 20.035C8.78496 20.2252 8.77173 20.5204 8.58151 20.6943C8.19876 21.0442 7.70008 21.2401 7.18152 21.2443L7.17776 21.2443C5.93364 21.2443 5 20.164 5 18.911C5 17.658 5.93364 16.5777 7.17776 16.5777L7.18152 16.5777C7.70008 16.5819 8.19876 16.7778 8.58151 17.1277C8.77173 17.3016 8.78496 17.5967 8.61106 17.787C8.43716 17.9772 8.14198 17.9904 7.95176 17.8165C7.73959 17.6226 7.46329 17.5138 7.17588 17.511Z" fill="currentColor"/>
  <path fill-rule="evenodd" clip-rule="evenodd" d="M6.40011 2.93332C6.35885 2.93332 6.31929 2.94971 6.29011 2.97888C6.26094 3.00806 6.24455 3.04762 6.24455 3.08888V13.9333C6.24455 14.191 6.03562 14.3999 5.77789 14.3999C5.52016 14.3999 5.31123 14.191 5.31123 13.9333V3.08888C5.31123 2.80009 5.42595 2.52313 5.63015 2.31893C5.83436 2.11472 6.11132 2 6.40011 2H13.8666C13.8695 2 13.8725 2.00003 13.8755 2.00008C13.9656 2.00177 14.0527 2.0295 14.1266 2.07905C14.1516 2.09582 14.1751 2.11508 14.1967 2.13668L18.5522 6.49219C18.5799 6.51988 18.6037 6.55069 18.6234 6.5838C18.6507 6.62972 18.6704 6.68073 18.6807 6.73508C18.6861 6.76359 18.6889 6.79274 18.6889 6.82217V13.9333C18.6889 14.191 18.4799 14.3999 18.2222 14.3999C17.9645 14.3999 17.7555 14.191 17.7555 13.9333V7.28884H13.8666C13.6089 7.28884 13.4 7.0799 13.4 6.82217V2.93332H6.40011ZM14.3333 3.5932V6.35551H17.0956L14.3333 3.5932ZM11.2223 17.9776C11.2223 17.7919 11.2874 17.6726 11.3801 17.5931C11.4805 17.5071 11.6552 17.4333 11.9216 17.4332C12.2418 17.4342 12.5532 17.5381 12.8099 17.7295C13.0165 17.8836 13.3089 17.841 13.463 17.6344C13.6171 17.4278 13.5745 17.1355 13.3679 16.9814C12.9506 16.6701 12.4441 16.5013 11.9235 16.4999L11.9223 16.4999C11.489 16.4999 11.0806 16.6205 10.7727 16.8844C10.4572 17.1549 10.2889 17.5412 10.2889 17.9776C10.2889 18.2127 10.3536 18.4248 10.4777 18.6058C10.5978 18.7807 10.7573 18.9033 10.9141 18.9923C11.1943 19.1514 11.5471 19.2447 11.8291 19.3193L11.8802 19.3328C12.2072 19.4197 12.448 19.4898 12.6127 19.5902C12.7435 19.6699 12.7778 19.7345 12.7778 19.8443C12.7778 20.0849 12.6944 20.1844 12.5943 20.2485C12.4604 20.3341 12.2349 20.3887 11.9229 20.3887C11.6027 20.3878 11.2913 20.2839 11.0346 20.0924C10.828 19.9383 10.5356 19.9809 10.3815 20.1875C10.2274 20.3941 10.27 20.6865 10.4766 20.8406C10.8939 21.1519 11.4004 21.3207 11.921 21.3221L11.9223 21.3221C12.3099 21.3221 12.7453 21.2599 13.0974 21.0346C13.4834 20.7875 13.7111 20.3814 13.7111 19.8443C13.7111 19.3319 13.4343 18.9979 13.0984 18.7932C12.8002 18.6115 12.4244 18.5117 12.1307 18.4337L12.1198 18.4308C11.7872 18.3424 11.5441 18.2767 11.3749 18.1807C11.2984 18.1372 11.2634 18.1012 11.2473 18.0778C11.2354 18.0603 11.2223 18.0342 11.2223 17.9776ZM15.2427 16.6136C15.4806 16.5145 15.7538 16.627 15.8529 16.8649L16.9777 19.5643L18.1025 16.8649C18.2016 16.627 18.4748 16.5145 18.7127 16.6136C18.9506 16.7127 19.0631 16.9859 18.964 17.2238L17.4084 20.9571C17.336 21.131 17.1661 21.2443 16.9777 21.2443C16.7893 21.2443 16.6194 21.131 16.5469 20.9571L14.9914 17.2238C14.8922 16.9859 15.0047 16.7127 15.2427 16.6136ZM7.17588 17.511C6.52298 17.5121 5.93332 18.0959 5.93332 18.911C5.93332 19.7261 6.52298 20.3098 7.17588 20.311C7.46329 20.3082 7.73959 20.1994 7.95176 20.0054C8.14198 19.8315 8.43716 19.8447 8.61106 20.035C8.78496 20.2252 8.77173 20.5204 8.58151 20.6943C8.19876 21.0442 7.70008 21.2401 7.18152 21.2443L7.17776 21.2443C5.93364 21.2443 5 20.164 5 18.911C5 17.658 5.93364 16.5777 7.17776 16.5777L7.18152 16.5777C7.70008 16.5819 8.19876 16.7778 8.58151 17.1277C8.77173 17.3016 8.78496 17.5967 8.61106 17.787C8.43716 17.9772 8.14198 17.9904 7.95176 17.8165C7.73959 17.6226 7.46329 17.5138 7.17588 17.511Z" fill="black" fill-opacity="0.2"/>
  <path fill-rule="evenodd" clip-rule="evenodd" d="M6.40011 2.93332C6.35885 2.93332 6.31929 2.94971 6.29011 2.97888C6.26094 3.00806 6.24455 3.04762 6.24455 3.08888V13.9333C6.24455 14.191 6.03562 14.3999 5.77789 14.3999C5.52016 14.3999 5.31123 14.191 5.31123 13.9333V3.08888C5.31123 2.80009 5.42595 2.52313 5.63015 2.31893C5.83436 2.11472 6.11132 2 6.40011 2H13.8666C13.8695 2 13.8725 2.00003 13.8755 2.00008C13.9656 2.00177 14.0527 2.0295 14.1266 2.07905C14.1516 2.09582 14.1751 2.11508 14.1967 2.13668L18.5522 6.49219C18.5799 6.51988 18.6037 6.55069 18.6234 6.5838C18.6507 6.62972 18.6704 6.68073 18.6807 6.73508C18.6861 6.76359 18.6889 6.79274 18.6889 6.82217V13.9333C18.6889 14.191 18.4799 14.3999 18.2222 14.3999C17.9645 14.3999 17.7555 14.191 17.7555 13.9333V7.28884H13.8666C13.6089 7.28884 13.4 7.0799 13.4 6.82217V2.93332H6.40011ZM14.3333 3.5932V6.35551H17.0956L14.3333 3.5932ZM11.2223 17.9776C11.2223 17.7919 11.2874 17.6726 11.3801 17.5931C11.4805 17.5071 11.6552 17.4333 11.9216 17.4332C12.2418 17.4342 12.5532 17.5381 12.8099 17.7295C13.0165 17.8836 13.3089 17.841 13.463 17.6344C13.6171 17.4278 13.5745 17.1355 13.3679 16.9814C12.9506 16.6701 12.4441 16.5013 11.9235 16.4999L11.9223 16.4999C11.489 16.4999 11.0806 16.6205 10.7727 16.8844C10.4572 17.1549 10.2889 17.5412 10.2889 17.9776C10.2889 18.2127 10.3536 18.4248 10.4777 18.6058C10.5978 18.7807 10.7573 18.9033 10.9141 18.9923C11.1943 19.1514 11.5471 19.2447 11.8291 19.3193L11.8802 19.3328C12.2072 19.4197 12.448 19.4898 12.6127 19.5902C12.7435 19.6699 12.7778 19.7345 12.7778 19.8443C12.7778 20.0849 12.6944 20.1844 12.5943 20.2485C12.4604 20.3341 12.2349 20.3887 11.9229 20.3887C11.6027 20.3878 11.2913 20.2839 11.0346 20.0924C10.828 19.9383 10.5356 19.9809 10.3815 20.1875C10.2274 20.3941 10.27 20.6865 10.4766 20.8406C10.8939 21.1519 11.4004 21.3207 11.921 21.3221L11.9223 21.3221C12.3099 21.3221 12.7453 21.2599 13.0974 21.0346C13.4834 20.7875 13.7111 20.3814 13.7111 19.8443C13.7111 19.3319 13.4343 18.9979 13.0984 18.7932C12.8002 18.6115 12.4244 18.5117 12.1307 18.4337L12.1198 18.4308C11.7872 18.3424 11.5441 18.2767 11.3749 18.1807C11.2984 18.1372 11.2634 18.1012 11.2473 18.0778C11.2354 18.0603 11.2223 18.0342 11.2223 17.9776ZM15.2427 16.6136C15.4806 16.5145 15.7538 16.627 15.8529 16.8649L16.9777 19.5643L18.1025 16.8649C18.2016 16.627 18.4748 16.5145 18.7127 16.6136C18.9506 16.7127 19.0631 16.9859 18.964 17.2238L17.4084 20.9571C17.336 21.131 17.1661 21.2443 16.9777 21.2443C16.7893 21.2443 16.6194 21.131 16.5469 20.9571L14.9914 17.2238C14.8922 16.9859 15.0047 16.7127 15.2427 16.6136ZM7.17588 17.511C6.52298 17.5121 5.93332 18.0959 5.93332 18.911C5.93332 19.7261 6.52298 20.3098 7.17588 20.311C7.46329 20.3082 7.73959 20.1994 7.95176 20.0054C8.14198 19.8315 8.43716 19.8447 8.61106 20.035C8.78496 20.2252 8.77173 20.5204 8.58151 20.6943C8.19876 21.0442 7.70008 21.2401 7.18152 21.2443L7.17776 21.2443C5.93364 21.2443 5 20.164 5 18.911C5 17.658 5.93364 16.5777 7.17776 16.5777L7.18152 16.5777C7.70008 16.5819 8.19876 16.7778 8.58151 17.1277C8.77173 17.3016 8.78496 17.5967 8.61106 17.787C8.43716 17.9772 8.14198 17.9904 7.95176 17.8165C7.73959 17.6226 7.46329 17.5138 7.17588 17.511Z" stroke="currentColor" stroke-width="0.4" stroke-linecap="round" stroke-linejoin="round"/>
  <path fill-rule="evenodd" clip-rule="evenodd" d="M6.40011 2.93332C6.35885 2.93332 6.31929 2.94971 6.29011 2.97888C6.26094 3.00806 6.24455 3.04762 6.24455 3.08888V13.9333C6.24455 14.191 6.03562 14.3999 5.77789 14.3999C5.52016 14.3999 5.31123 14.191 5.31123 13.9333V3.08888C5.31123 2.80009 5.42595 2.52313 5.63015 2.31893C5.83436 2.11472 6.11132 2 6.40011 2H13.8666C13.8695 2 13.8725 2.00003 13.8755 2.00008C13.9656 2.00177 14.0527 2.0295 14.1266 2.07905C14.1516 2.09582 14.1751 2.11508 14.1967 2.13668L18.5522 6.49219C18.5799 6.51988 18.6037 6.55069 18.6234 6.5838C18.6507 6.62972 18.6704 6.68073 18.6807 6.73508C18.6861 6.76359 18.6889 6.79274 18.6889 6.82217V13.9333C18.6889 14.191 18.4799 14.3999 18.2222 14.3999C17.9645 14.3999 17.7555 14.191 17.7555 13.9333V7.28884H13.8666C13.6089 7.28884 13.4 7.0799 13.4 6.82217V2.93332H6.40011ZM14.3333 3.5932V6.35551H17.0956L14.3333 3.5932ZM11.2223 17.9776C11.2223 17.7919 11.2874 17.6726 11.3801 17.5931C11.4805 17.5071 11.6552 17.4333 11.9216 17.4332C12.2418 17.4342 12.5532 17.5381 12.8099 17.7295C13.0165 17.8836 13.3089 17.841 13.463 17.6344C13.6171 17.4278 13.5745 17.1355 13.3679 16.9814C12.9506 16.6701 12.4441 16.5013 11.9235 16.4999L11.9223 16.4999C11.489 16.4999 11.0806 16.6205 10.7727 16.8844C10.4572 17.1549 10.2889 17.5412 10.2889 17.9776C10.2889 18.2127 10.3536 18.4248 10.4777 18.6058C10.5978 18.7807 10.7573 18.9033 10.9141 18.9923C11.1943 19.1514 11.5471 19.2447 11.8291 19.3193L11.8802 19.3328C12.2072 19.4197 12.448 19.4898 12.6127 19.5902C12.7435 19.6699 12.7778 19.7345 12.7778 19.8443C12.7778 20.0849 12.6944 20.1844 12.5943 20.2485C12.4604 20.3341 12.2349 20.3887 11.9229 20.3887C11.6027 20.3878 11.2913 20.2839 11.0346 20.0924C10.828 19.9383 10.5356 19.9809 10.3815 20.1875C10.2274 20.3941 10.27 20.6865 10.4766 20.8406C10.8939 21.1519 11.4004 21.3207 11.921 21.3221L11.9223 21.3221C12.3099 21.3221 12.7453 21.2599 13.0974 21.0346C13.4834 20.7875 13.7111 20.3814 13.7111 19.8443C13.7111 19.3319 13.4343 18.9979 13.0984 18.7932C12.8002 18.6115 12.4244 18.5117 12.1307 18.4337L12.1198 18.4308C11.7872 18.3424 11.5441 18.2767 11.3749 18.1807C11.2984 18.1372 11.2634 18.1012 11.2473 18.0778C11.2354 18.0603 11.2223 18.0342 11.2223 17.9776ZM15.2427 16.6136C15.4806 16.5145 15.7538 16.627 15.8529 16.8649L16.9777 19.5643L18.1025 16.8649C18.2016 16.627 18.4748 16.5145 18.7127 16.6136C18.9506 16.7127 19.0631 16.9859 18.964 17.2238L17.4084 20.9571C17.336 21.131 17.1661 21.2443 16.9777 21.2443C16.7893 21.2443 16.6194 21.131 16.5469 20.9571L14.9914 17.2238C14.8922 16.9859 15.0047 16.7127 15.2427 16.6136ZM7.17588 17.511C6.52298 17.5121 5.93332 18.0959 5.93332 18.911C5.93332 19.7261 6.52298 20.3098 7.17588 20.311C7.46329 20.3082 7.73959 20.1994 7.95176 20.0054C8.14198 19.8315 8.43716 19.8447 8.61106 20.035C8.78496 20.2252 8.77173 20.5204 8.58151 20.6943C8.19876 21.0442 7.70008 21.2401 7.18152 21.2443L7.17776 21.2443C5.93364 21.2443 5 20.164 5 18.911C5 17.658 5.93364 16.5777 7.17776 16.5777L7.18152 16.5777C7.70008 16.5819 8.19876 16.7778 8.58151 17.1277C8.77173 17.3016 8.78496 17.5967 8.61106 17.787C8.43716 17.9772 8.14198 17.9904 7.95176 17.8165C7.73959 17.6226 7.46329 17.5138 7.17588 17.511Z" stroke="black" stroke-opacity="0.2" stroke-width="0.4" stroke-linecap="round" stroke-linejoin="round"/>
</svg>
