<svg xmlns="http://www.w3.org/2000/svg" width="20" height="20" viewBox="0 0 20 20" fill="none">
  <path d="M10.4561 1.13184C14.9921 1.36215 18.6378 5.00792 18.8682 9.54395L18.8799 10C18.8799 14.7454 15.1431 18.6302 10.4561 18.8682L10 18.8799C5.25455 18.8799 1.36982 15.1431 1.13184 10.4561L1.12012 10C1.12012 5.10161 5.10161 1.12012 10 1.12012L10.4561 1.13184ZM16.457 13.5049L13.2002 13.5293L13.1104 13.5303L13.0859 13.6162C12.73 14.8705 12.1786 16.0729 11.4326 17.1865L11.2676 17.4316L11.5576 17.3701C13.7049 16.9116 15.5171 15.5451 16.5625 13.6836L16.6641 13.5039L16.457 13.5049ZM6.60254 13.5742L3.58887 13.5986L3.38184 13.6006L3.48633 13.7793C4.50404 15.5174 6.19248 16.8214 8.20508 17.3105L8.50293 17.3828L8.33301 17.1279C7.61555 16.0451 7.07203 14.8695 6.71875 13.6611L6.69336 13.5732L6.60254 13.5742ZM11.541 13.5469L8.26855 13.5713L8.10449 13.5723L8.15527 13.7285C8.52303 14.8466 9.07522 15.912 9.80273 16.8975L9.90039 17.0293L9.99609 16.8965C10.7233 15.9 11.2767 14.8245 11.6553 13.7051L11.71 13.5459L11.541 13.5469ZM2.83105 7.7002L2.80469 7.78418C2.58587 8.48045 2.46484 9.23451 2.46484 10L2.46973 10.2812C2.49343 10.9338 2.60057 11.5667 2.79004 12.1719L2.81641 12.2568L2.90527 12.2559L6.3916 12.2295L6.36914 12.0918C6.1436 10.6818 6.14428 9.25032 6.38086 7.83984L6.4043 7.7002H2.83105ZM7.76465 7.7002L7.74609 7.79785C7.47235 9.22279 7.47325 10.6928 7.74707 12.1299L7.76562 12.2285L7.86621 12.2275L11.9629 12.2012L12.0625 12.2002L12.0801 12.1016C12.3297 10.6776 12.3293 9.22085 12.0557 7.79785L12.0371 7.7002H7.76465ZM13.3975 7.7002L13.4219 7.84082C13.6588 9.23516 13.6704 10.651 13.4473 12.0459L13.4248 12.1855L17.1318 12.1592L17.2227 12.1582L17.2461 12.0713C17.4047 11.5005 17.5072 10.8949 17.5303 10.2695L17.5352 10C17.5352 9.23451 17.4141 8.48045 17.1953 7.78418L17.1689 7.7002H13.3975ZM8.20605 2.68945C6.20863 3.17491 4.53376 4.45497 3.51758 6.17578L3.41113 6.35645H6.72168L6.74707 6.27051C7.0988 5.07789 7.63038 3.93605 8.33398 2.87207L8.50293 2.61719L8.20605 2.68945ZM9.80469 3.10156C9.09234 4.06939 8.55283 5.10745 8.17676 6.19727L8.12207 6.35645H11.6807L11.626 6.19727C11.2499 5.10754 10.7103 4.06932 9.99805 3.10156L9.90137 2.9707L9.80469 3.10156ZM11.4277 2.81055C12.1495 3.89671 12.6884 5.0682 13.0537 6.27148L13.0801 6.35645H16.5908L16.4844 6.17578C15.4315 4.381 13.6565 3.06775 11.5518 2.62695L11.2656 2.56641L11.4277 2.81055Z" fill="currentColor"/>
</svg>
