<svg xmlns="http://www.w3.org/2000/svg" width="20" height="20" viewBox="0 0 20 20" fill="none">
  <path d="M13.6738 1C16.6154 1.00015 18.9998 3.38465 19 6.32617V13.6738C18.9998 16.6153 16.6153 18.9999 13.6738 19H6.32617C3.38474 18.9998 1.00021 16.6153 1 13.6738V6.32617C1.00018 3.38471 3.38473 1.00024 6.32617 1H13.6738ZM6.32617 2.46973C4.19625 2.46997 2.46991 4.19623 2.46973 6.32617V13.6738C2.46993 15.8037 4.19626 17.53 6.32617 17.5303H13.6738C15.8038 17.5301 17.5301 15.8038 17.5303 13.6738V6.32617C17.5301 4.19618 15.8038 2.46987 13.6738 2.46973H6.32617ZM10 9.26562C10.4058 9.26562 10.7344 9.59424 10.7344 10V13.6738C10.7342 14.0794 10.4056 14.4082 10 14.4082C9.59441 14.4082 9.26583 14.0794 9.26562 13.6738V10C9.26562 9.59427 9.59428 9.26567 10 9.26562ZM10 5.3623C10.5324 5.3623 10.9647 5.79377 10.9648 6.32617C10.9648 6.85873 10.5326 7.29102 10 7.29102C9.46748 7.29097 9.03613 6.8587 9.03613 6.32617C9.03631 5.7938 9.46759 5.36235 10 5.3623Z" fill="currentColor"/>
</svg>
