<svg xmlns="http://www.w3.org/2000/svg" width="24" height="24" viewBox="0 0 24 24" fill="none">
  <path fill-rule="evenodd" clip-rule="evenodd" d="M6.40016 2.93332C6.3589 2.93332 6.31934 2.94971 6.29016 2.97888C6.26099 3.00806 6.2446 3.04762 6.2446 3.08888V13.9333C6.2446 14.191 6.03567 14.3999 5.77794 14.3999C5.52021 14.3999 5.31128 14.191 5.31128 13.9333V3.08888C5.31128 2.80009 5.426 2.52313 5.6302 2.31893C5.83441 2.11472 6.11137 2 6.40016 2H13.8667C13.8696 2 13.8726 2.00003 13.8755 2.00008C13.9656 2.00177 14.0527 2.0295 14.1266 2.07905C14.1516 2.09582 14.1751 2.11508 14.1967 2.13668L18.5522 6.49219C18.5799 6.51988 18.6038 6.55069 18.6234 6.5838C18.6508 6.62972 18.6705 6.68073 18.6807 6.73508C18.6861 6.76359 18.6889 6.79274 18.6889 6.82217V13.9333C18.6889 14.191 18.48 14.3999 18.2223 14.3999C17.9645 14.3999 17.7556 14.191 17.7556 13.9333V7.28884H13.8667C13.6089 7.28884 13.4 7.0799 13.4 6.82217V2.93332H6.40016ZM14.3333 3.5932V6.35551H17.0956L14.3333 3.5932Z" fill="currentColor"/>
  <path fill-rule="evenodd" clip-rule="evenodd" d="M6.40016 2.93332C6.3589 2.93332 6.31934 2.94971 6.29016 2.97888C6.26099 3.00806 6.2446 3.04762 6.2446 3.08888V13.9333C6.2446 14.191 6.03567 14.3999 5.77794 14.3999C5.52021 14.3999 5.31128 14.191 5.31128 13.9333V3.08888C5.31128 2.80009 5.426 2.52313 5.6302 2.31893C5.83441 2.11472 6.11137 2 6.40016 2H13.8667C13.8696 2 13.8726 2.00003 13.8755 2.00008C13.9656 2.00177 14.0527 2.0295 14.1266 2.07905C14.1516 2.09582 14.1751 2.11508 14.1967 2.13668L18.5522 6.49219C18.5799 6.51988 18.6038 6.55069 18.6234 6.5838C18.6508 6.62972 18.6705 6.68073 18.6807 6.73508C18.6861 6.76359 18.6889 6.79274 18.6889 6.82217V13.9333C18.6889 14.191 18.48 14.3999 18.2223 14.3999C17.9645 14.3999 17.7556 14.191 17.7556 13.9333V7.28884H13.8667C13.6089 7.28884 13.4 7.0799 13.4 6.82217V2.93332H6.40016ZM14.3333 3.5932V6.35551H17.0956L14.3333 3.5932Z" fill="black" fill-opacity="0.2"/>
  <path fill-rule="evenodd" clip-rule="evenodd" d="M6.40016 2.93332C6.3589 2.93332 6.31934 2.94971 6.29016 2.97888C6.26099 3.00806 6.2446 3.04762 6.2446 3.08888V13.9333C6.2446 14.191 6.03567 14.3999 5.77794 14.3999C5.52021 14.3999 5.31128 14.191 5.31128 13.9333V3.08888C5.31128 2.80009 5.426 2.52313 5.6302 2.31893C5.83441 2.11472 6.11137 2 6.40016 2H13.8667C13.8696 2 13.8726 2.00003 13.8755 2.00008C13.9656 2.00177 14.0527 2.0295 14.1266 2.07905C14.1516 2.09582 14.1751 2.11508 14.1967 2.13668L18.5522 6.49219C18.5799 6.51988 18.6038 6.55069 18.6234 6.5838C18.6508 6.62972 18.6705 6.68073 18.6807 6.73508C18.6861 6.76359 18.6889 6.79274 18.6889 6.82217V13.9333C18.6889 14.191 18.48 14.3999 18.2223 14.3999C17.9645 14.3999 17.7556 14.191 17.7556 13.9333V7.28884H13.8667C13.6089 7.28884 13.4 7.0799 13.4 6.82217V2.93332H6.40016ZM14.3333 3.5932V6.35551H17.0956L14.3333 3.5932Z" stroke="currentColor" stroke-width="0.4" stroke-linecap="round" stroke-linejoin="round"/>
  <path fill-rule="evenodd" clip-rule="evenodd" d="M6.40016 2.93332C6.3589 2.93332 6.31934 2.94971 6.29016 2.97888C6.26099 3.00806 6.2446 3.04762 6.2446 3.08888V13.9333C6.2446 14.191 6.03567 14.3999 5.77794 14.3999C5.52021 14.3999 5.31128 14.191 5.31128 13.9333V3.08888C5.31128 2.80009 5.426 2.52313 5.6302 2.31893C5.83441 2.11472 6.11137 2 6.40016 2H13.8667C13.8696 2 13.8726 2.00003 13.8755 2.00008C13.9656 2.00177 14.0527 2.0295 14.1266 2.07905C14.1516 2.09582 14.1751 2.11508 14.1967 2.13668L18.5522 6.49219C18.5799 6.51988 18.6038 6.55069 18.6234 6.5838C18.6508 6.62972 18.6705 6.68073 18.6807 6.73508C18.6861 6.76359 18.6889 6.79274 18.6889 6.82217V13.9333C18.6889 14.191 18.48 14.3999 18.2223 14.3999C17.9645 14.3999 17.7556 14.191 17.7556 13.9333V7.28884H13.8667C13.6089 7.28884 13.4 7.0799 13.4 6.82217V2.93332H6.40016ZM14.3333 3.5932V6.35551H17.0956L14.3333 3.5932Z" stroke="black" stroke-opacity="0.2" stroke-width="0.4" stroke-linecap="round" stroke-linejoin="round"/>
  <path fill-rule="evenodd" clip-rule="evenodd" d="M7.75199 20.1373C7.73619 20.0978 7.72199 20.0576 7.7094 20.0167C7.64091 19.7941 7.83227 19.5973 8.06516 19.5973H8.13938C8.29986 19.5973 8.4291 19.7203 8.50788 19.8601C8.55266 19.9396 8.61084 20.0073 8.67879 20.0592C8.75024 20.1181 8.83598 20.1638 8.93396 20.1963C9.03093 20.2299 9.13912 20.2456 9.25957 20.2456C9.42696 20.2456 9.5668 20.2179 9.68112 20.1614C9.78521 20.1155 9.87567 20.0349 9.9414 19.9293C9.99937 19.826 10.0293 19.7043 10.0271 19.5805C10.0301 19.5052 10.0176 19.4302 9.99057 19.3619C9.96355 19.2936 9.92285 19.2341 9.87199 19.1884C9.7689 19.0922 9.61069 19.0152 9.3994 18.9563L8.76861 18.7843C8.57418 18.7358 8.38815 18.6488 8.21845 18.5269C8.06844 18.4187 7.94468 18.2666 7.85916 18.0855C7.77234 17.8915 7.72912 17.6745 7.73361 17.4553C7.73361 17.1618 7.79894 16.9056 7.92755 16.6867C8.0582 16.4691 8.23784 16.2995 8.46648 16.1792C8.69614 16.0589 8.9605 16 9.25957 16C9.56986 16 9.83524 16.0601 10.0547 16.1828C10.2762 16.3055 10.4466 16.4703 10.565 16.6759C10.616 16.761 10.6574 16.85 10.6894 16.9428C10.7642 17.1598 10.5724 17.3567 10.343 17.3567C10.1494 17.3567 9.99258 17.2047 9.88118 17.0464C9.81407 16.9504 9.72779 16.8756 9.63008 16.8287C9.5103 16.7711 9.38174 16.7433 9.25242 16.7469C9.03195 16.7469 8.85741 16.807 8.72982 16.9297C8.66981 16.9838 8.62145 17.0538 8.58864 17.1341C8.55584 17.2143 8.53952 17.3025 8.54099 17.3915C8.54099 17.5371 8.58999 17.6561 8.68797 17.7524C8.80992 17.8588 8.95101 17.9308 9.10034 17.9628L9.73419 18.1348C9.95569 18.195 10.1486 18.2791 10.3119 18.3886C10.4694 18.49 10.6014 18.6385 10.6947 18.8192C10.7865 18.9972 10.8325 19.2221 10.8325 19.4927C10.8325 19.7898 10.7682 20.0532 10.6406 20.2817C10.5047 20.517 10.3135 20.7005 10.0904 20.8097C9.85158 20.9359 9.55965 20.9997 9.21466 20.9997C8.9554 20.9997 8.7288 20.9636 8.53589 20.8914C8.35814 20.8286 8.19243 20.7257 8.04799 20.5884C7.92337 20.4644 7.82248 20.3106 7.75199 20.1373ZM4.58372 20.0977C4.56616 20.0417 4.55131 19.9848 4.53923 19.927C4.49473 19.7145 4.67546 19.5372 4.89258 19.5372H4.94391C5.13045 19.5372 5.27492 19.6936 5.35537 19.8619C5.40237 19.9563 5.47039 20.0338 5.55207 20.086C5.63375 20.1381 5.72598 20.163 5.81877 20.1578C6.01271 20.1578 6.15561 20.0916 6.24951 19.9605C6.34239 19.8282 6.38935 19.6418 6.38935 19.4001V16.5023C6.38935 16.2794 6.57009 16.0986 6.79304 16.0986C7.01599 16.0986 7.19672 16.2794 7.19672 16.5023V19.376C7.19672 19.9052 7.07526 20.3069 6.83233 20.5848C6.59043 20.8614 6.25564 20.9997 5.82694 20.9997C5.62946 21.0039 5.43298 20.9656 5.24718 20.8866C5.09086 20.8163 4.94919 20.7072 4.83175 20.5667C4.72291 20.4318 4.63852 20.2722 4.58372 20.0977ZM13.8629 18.1913V18.8192C13.8629 19.1271 13.8231 19.3844 13.7435 19.5901C13.6757 19.7803 13.5613 19.9424 13.4149 20.0556C13.2703 20.1584 13.104 20.2109 12.9351 20.2071C12.7663 20.2105 12.6001 20.158 12.4554 20.0556C12.3101 19.9416 12.1964 19.7797 12.1288 19.5901C12.043 19.346 12.0023 19.0832 12.0093 18.8192V18.1913C12.0093 17.881 12.0492 17.6249 12.1288 17.4204C12.1964 17.2308 12.3101 17.0689 12.4554 16.955C12.5994 16.8503 12.7659 16.7965 12.9351 16.7998C13.1158 16.7998 13.275 16.8515 13.4149 16.955C13.5613 17.0681 13.6757 17.2302 13.7435 17.4204C13.8231 17.6249 13.8629 17.881 13.8629 18.1913ZM14.6826 18.8156V18.1986C14.6826 17.7451 14.6121 17.3555 14.4733 17.0283C14.342 16.71 14.1321 16.4459 13.8711 16.2706C13.6129 16.095 13.3005 16.006 12.9361 16.006C12.5728 16.006 12.2604 16.095 11.9971 16.2706C11.7361 16.4443 11.5263 16.7078 11.3959 17.0259C11.2561 17.3519 11.1867 17.7427 11.1867 18.1986V18.8156C11.1867 19.2666 11.2561 19.6563 11.3959 19.9858C11.5357 20.3117 11.7358 20.5631 11.9971 20.7387C12.2604 20.9131 12.5728 20.9997 12.9361 20.9997C13.3005 20.9997 13.6129 20.9131 13.8721 20.7387C14.1334 20.5631 14.3335 20.3117 14.4733 19.9858C14.6121 19.6563 14.6826 19.2666 14.6826 18.8156ZM16.0003 17.691C15.9997 17.691 15.9993 17.6915 15.9993 17.692V20.5276C15.9993 20.7378 15.8288 20.9083 15.6186 20.9083C15.4083 20.9083 15.2378 20.7378 15.2378 20.5276V16.5245C15.2378 16.2893 15.4285 16.0986 15.6637 16.0986C15.818 16.0986 15.9602 16.182 16.0354 16.3167L17.6959 19.2873C17.6996 19.2938 17.7064 19.2978 17.7139 19.2978C17.7253 19.2978 17.7345 19.2886 17.7345 19.2773V16.4814C17.7345 16.27 17.9058 16.0986 18.1172 16.0986C18.3286 16.0986 18.5 16.27 18.5 16.4814V20.4875C18.5 20.7206 18.3111 20.9095 18.0781 20.9095C17.9252 20.9095 17.7842 20.8268 17.7097 20.6933L16.0489 17.7195C16.0391 17.7019 16.0205 17.691 16.0003 17.691Z" fill="currentColor"/>
  <path fill-rule="evenodd" clip-rule="evenodd" d="M7.75199 20.1373C7.73619 20.0978 7.72199 20.0576 7.7094 20.0167C7.64091 19.7941 7.83227 19.5973 8.06516 19.5973H8.13938C8.29986 19.5973 8.4291 19.7203 8.50788 19.8601C8.55266 19.9396 8.61084 20.0073 8.67879 20.0592C8.75024 20.1181 8.83598 20.1638 8.93396 20.1963C9.03093 20.2299 9.13912 20.2456 9.25957 20.2456C9.42696 20.2456 9.5668 20.2179 9.68112 20.1614C9.78521 20.1155 9.87567 20.0349 9.9414 19.9293C9.99937 19.826 10.0293 19.7043 10.0271 19.5805C10.0301 19.5052 10.0176 19.4302 9.99057 19.3619C9.96355 19.2936 9.92285 19.2341 9.87199 19.1884C9.7689 19.0922 9.61069 19.0152 9.3994 18.9563L8.76861 18.7843C8.57418 18.7358 8.38815 18.6488 8.21845 18.5269C8.06844 18.4187 7.94468 18.2666 7.85916 18.0855C7.77234 17.8915 7.72912 17.6745 7.73361 17.4553C7.73361 17.1618 7.79894 16.9056 7.92755 16.6867C8.0582 16.4691 8.23784 16.2995 8.46648 16.1792C8.69614 16.0589 8.9605 16 9.25957 16C9.56986 16 9.83524 16.0601 10.0547 16.1828C10.2762 16.3055 10.4466 16.4703 10.565 16.6759C10.616 16.761 10.6574 16.85 10.6894 16.9428C10.7642 17.1598 10.5724 17.3567 10.343 17.3567C10.1494 17.3567 9.99258 17.2047 9.88118 17.0464C9.81407 16.9504 9.72779 16.8756 9.63008 16.8287C9.5103 16.7711 9.38174 16.7433 9.25242 16.7469C9.03195 16.7469 8.85741 16.807 8.72982 16.9297C8.66981 16.9838 8.62145 17.0538 8.58864 17.1341C8.55584 17.2143 8.53952 17.3025 8.54099 17.3915C8.54099 17.5371 8.58999 17.6561 8.68797 17.7524C8.80992 17.8588 8.95101 17.9308 9.10034 17.9628L9.73419 18.1348C9.95569 18.195 10.1486 18.2791 10.3119 18.3886C10.4694 18.49 10.6014 18.6385 10.6947 18.8192C10.7865 18.9972 10.8325 19.2221 10.8325 19.4927C10.8325 19.7898 10.7682 20.0532 10.6406 20.2817C10.5047 20.517 10.3135 20.7005 10.0904 20.8097C9.85158 20.9359 9.55965 20.9997 9.21466 20.9997C8.9554 20.9997 8.7288 20.9636 8.53589 20.8914C8.35814 20.8286 8.19243 20.7257 8.04799 20.5884C7.92337 20.4644 7.82248 20.3106 7.75199 20.1373ZM4.58372 20.0977C4.56616 20.0417 4.55131 19.9848 4.53923 19.927C4.49473 19.7145 4.67546 19.5372 4.89258 19.5372H4.94391C5.13045 19.5372 5.27492 19.6936 5.35537 19.8619C5.40237 19.9563 5.47039 20.0338 5.55207 20.086C5.63375 20.1381 5.72598 20.163 5.81877 20.1578C6.01271 20.1578 6.15561 20.0916 6.24951 19.9605C6.34239 19.8282 6.38935 19.6418 6.38935 19.4001V16.5023C6.38935 16.2794 6.57009 16.0986 6.79304 16.0986C7.01599 16.0986 7.19672 16.2794 7.19672 16.5023V19.376C7.19672 19.9052 7.07526 20.3069 6.83233 20.5848C6.59043 20.8614 6.25564 20.9997 5.82694 20.9997C5.62946 21.0039 5.43298 20.9656 5.24718 20.8866C5.09086 20.8163 4.94919 20.7072 4.83175 20.5667C4.72291 20.4318 4.63852 20.2722 4.58372 20.0977ZM13.8629 18.1913V18.8192C13.8629 19.1271 13.8231 19.3844 13.7435 19.5901C13.6757 19.7803 13.5613 19.9424 13.4149 20.0556C13.2703 20.1584 13.104 20.2109 12.9351 20.2071C12.7663 20.2105 12.6001 20.158 12.4554 20.0556C12.3101 19.9416 12.1964 19.7797 12.1288 19.5901C12.043 19.346 12.0023 19.0832 12.0093 18.8192V18.1913C12.0093 17.881 12.0492 17.6249 12.1288 17.4204C12.1964 17.2308 12.3101 17.0689 12.4554 16.955C12.5994 16.8503 12.7659 16.7965 12.9351 16.7998C13.1158 16.7998 13.275 16.8515 13.4149 16.955C13.5613 17.0681 13.6757 17.2302 13.7435 17.4204C13.8231 17.6249 13.8629 17.881 13.8629 18.1913ZM14.6826 18.8156V18.1986C14.6826 17.7451 14.6121 17.3555 14.4733 17.0283C14.342 16.71 14.1321 16.4459 13.8711 16.2706C13.6129 16.095 13.3005 16.006 12.9361 16.006C12.5728 16.006 12.2604 16.095 11.9971 16.2706C11.7361 16.4443 11.5263 16.7078 11.3959 17.0259C11.2561 17.3519 11.1867 17.7427 11.1867 18.1986V18.8156C11.1867 19.2666 11.2561 19.6563 11.3959 19.9858C11.5357 20.3117 11.7358 20.5631 11.9971 20.7387C12.2604 20.9131 12.5728 20.9997 12.9361 20.9997C13.3005 20.9997 13.6129 20.9131 13.8721 20.7387C14.1334 20.5631 14.3335 20.3117 14.4733 19.9858C14.6121 19.6563 14.6826 19.2666 14.6826 18.8156ZM16.0003 17.691C15.9997 17.691 15.9993 17.6915 15.9993 17.692V20.5276C15.9993 20.7378 15.8288 20.9083 15.6186 20.9083C15.4083 20.9083 15.2378 20.7378 15.2378 20.5276V16.5245C15.2378 16.2893 15.4285 16.0986 15.6637 16.0986C15.818 16.0986 15.9602 16.182 16.0354 16.3167L17.6959 19.2873C17.6996 19.2938 17.7064 19.2978 17.7139 19.2978C17.7253 19.2978 17.7345 19.2886 17.7345 19.2773V16.4814C17.7345 16.27 17.9058 16.0986 18.1172 16.0986C18.3286 16.0986 18.5 16.27 18.5 16.4814V20.4875C18.5 20.7206 18.3111 20.9095 18.0781 20.9095C17.9252 20.9095 17.7842 20.8268 17.7097 20.6933L16.0489 17.7195C16.0391 17.7019 16.0205 17.691 16.0003 17.691Z" fill="black" fill-opacity="0.2"/>
  <path fill-rule="evenodd" clip-rule="evenodd" d="M7.75199 20.1373C7.73619 20.0978 7.72199 20.0576 7.7094 20.0167C7.64091 19.7941 7.83227 19.5973 8.06516 19.5973H8.13938C8.29986 19.5973 8.4291 19.7203 8.50788 19.8601C8.55266 19.9396 8.61084 20.0073 8.67879 20.0592C8.75024 20.1181 8.83598 20.1638 8.93396 20.1963C9.03093 20.2299 9.13912 20.2456 9.25957 20.2456C9.42696 20.2456 9.5668 20.2179 9.68112 20.1614C9.78521 20.1155 9.87567 20.0349 9.9414 19.9293C9.99937 19.826 10.0293 19.7043 10.0271 19.5805C10.0301 19.5052 10.0176 19.4302 9.99057 19.3619C9.96355 19.2936 9.92285 19.2341 9.87199 19.1884C9.7689 19.0922 9.61069 19.0152 9.3994 18.9563L8.76861 18.7843C8.57418 18.7358 8.38815 18.6488 8.21845 18.5269C8.06844 18.4187 7.94468 18.2666 7.85916 18.0855C7.77234 17.8915 7.72912 17.6745 7.73361 17.4553C7.73361 17.1618 7.79894 16.9056 7.92755 16.6867C8.0582 16.4691 8.23784 16.2995 8.46648 16.1792C8.69614 16.0589 8.9605 16 9.25957 16C9.56986 16 9.83524 16.0601 10.0547 16.1828C10.2762 16.3055 10.4466 16.4703 10.565 16.6759C10.616 16.761 10.6574 16.85 10.6894 16.9428C10.7642 17.1598 10.5724 17.3567 10.343 17.3567C10.1494 17.3567 9.99258 17.2047 9.88118 17.0464C9.81407 16.9504 9.72779 16.8756 9.63008 16.8287C9.5103 16.7711 9.38174 16.7433 9.25242 16.7469C9.03195 16.7469 8.85741 16.807 8.72982 16.9297C8.66981 16.9838 8.62145 17.0538 8.58864 17.1341C8.55584 17.2143 8.53952 17.3025 8.54099 17.3915C8.54099 17.5371 8.58999 17.6561 8.68797 17.7524C8.80992 17.8588 8.95101 17.9308 9.10034 17.9628L9.73419 18.1348C9.95569 18.195 10.1486 18.2791 10.3119 18.3886C10.4694 18.49 10.6014 18.6385 10.6947 18.8192C10.7865 18.9972 10.8325 19.2221 10.8325 19.4927C10.8325 19.7898 10.7682 20.0532 10.6406 20.2817C10.5047 20.517 10.3135 20.7005 10.0904 20.8097C9.85158 20.9359 9.55965 20.9997 9.21466 20.9997C8.9554 20.9997 8.7288 20.9636 8.53589 20.8914C8.35814 20.8286 8.19243 20.7257 8.04799 20.5884C7.92337 20.4644 7.82248 20.3106 7.75199 20.1373ZM4.58372 20.0977C4.56616 20.0417 4.55131 19.9848 4.53923 19.927C4.49473 19.7145 4.67546 19.5372 4.89258 19.5372H4.94391C5.13045 19.5372 5.27492 19.6936 5.35537 19.8619C5.40237 19.9563 5.47039 20.0338 5.55207 20.086C5.63375 20.1381 5.72598 20.163 5.81877 20.1578C6.01271 20.1578 6.15561 20.0916 6.24951 19.9605C6.34239 19.8282 6.38935 19.6418 6.38935 19.4001V16.5023C6.38935 16.2794 6.57009 16.0986 6.79304 16.0986C7.01599 16.0986 7.19672 16.2794 7.19672 16.5023V19.376C7.19672 19.9052 7.07526 20.3069 6.83233 20.5848C6.59043 20.8614 6.25564 20.9997 5.82694 20.9997C5.62946 21.0039 5.43298 20.9656 5.24718 20.8866C5.09086 20.8163 4.94919 20.7072 4.83175 20.5667C4.72291 20.4318 4.63852 20.2722 4.58372 20.0977ZM13.8629 18.1913V18.8192C13.8629 19.1271 13.8231 19.3844 13.7435 19.5901C13.6757 19.7803 13.5613 19.9424 13.4149 20.0556C13.2703 20.1584 13.104 20.2109 12.9351 20.2071C12.7663 20.2105 12.6001 20.158 12.4554 20.0556C12.3101 19.9416 12.1964 19.7797 12.1288 19.5901C12.043 19.346 12.0023 19.0832 12.0093 18.8192V18.1913C12.0093 17.881 12.0492 17.6249 12.1288 17.4204C12.1964 17.2308 12.3101 17.0689 12.4554 16.955C12.5994 16.8503 12.7659 16.7965 12.9351 16.7998C13.1158 16.7998 13.275 16.8515 13.4149 16.955C13.5613 17.0681 13.6757 17.2302 13.7435 17.4204C13.8231 17.6249 13.8629 17.881 13.8629 18.1913ZM14.6826 18.8156V18.1986C14.6826 17.7451 14.6121 17.3555 14.4733 17.0283C14.342 16.71 14.1321 16.4459 13.8711 16.2706C13.6129 16.095 13.3005 16.006 12.9361 16.006C12.5728 16.006 12.2604 16.095 11.9971 16.2706C11.7361 16.4443 11.5263 16.7078 11.3959 17.0259C11.2561 17.3519 11.1867 17.7427 11.1867 18.1986V18.8156C11.1867 19.2666 11.2561 19.6563 11.3959 19.9858C11.5357 20.3117 11.7358 20.5631 11.9971 20.7387C12.2604 20.9131 12.5728 20.9997 12.9361 20.9997C13.3005 20.9997 13.6129 20.9131 13.8721 20.7387C14.1334 20.5631 14.3335 20.3117 14.4733 19.9858C14.6121 19.6563 14.6826 19.2666 14.6826 18.8156ZM16.0003 17.691C15.9997 17.691 15.9993 17.6915 15.9993 17.692V20.5276C15.9993 20.7378 15.8288 20.9083 15.6186 20.9083C15.4083 20.9083 15.2378 20.7378 15.2378 20.5276V16.5245C15.2378 16.2893 15.4285 16.0986 15.6637 16.0986C15.818 16.0986 15.9602 16.182 16.0354 16.3167L17.6959 19.2873C17.6996 19.2938 17.7064 19.2978 17.7139 19.2978C17.7253 19.2978 17.7345 19.2886 17.7345 19.2773V16.4814C17.7345 16.27 17.9058 16.0986 18.1172 16.0986C18.3286 16.0986 18.5 16.27 18.5 16.4814V20.4875C18.5 20.7206 18.3111 20.9095 18.0781 20.9095C17.9252 20.9095 17.7842 20.8268 17.7097 20.6933L16.0489 17.7195C16.0391 17.7019 16.0205 17.691 16.0003 17.691Z" stroke="currentColor" stroke-width="0.3"/>
  <path fill-rule="evenodd" clip-rule="evenodd" d="M7.75199 20.1373C7.73619 20.0978 7.72199 20.0576 7.7094 20.0167C7.64091 19.7941 7.83227 19.5973 8.06516 19.5973H8.13938C8.29986 19.5973 8.4291 19.7203 8.50788 19.8601C8.55266 19.9396 8.61084 20.0073 8.67879 20.0592C8.75024 20.1181 8.83598 20.1638 8.93396 20.1963C9.03093 20.2299 9.13912 20.2456 9.25957 20.2456C9.42696 20.2456 9.5668 20.2179 9.68112 20.1614C9.78521 20.1155 9.87567 20.0349 9.9414 19.9293C9.99937 19.826 10.0293 19.7043 10.0271 19.5805C10.0301 19.5052 10.0176 19.4302 9.99057 19.3619C9.96355 19.2936 9.92285 19.2341 9.87199 19.1884C9.7689 19.0922 9.61069 19.0152 9.3994 18.9563L8.76861 18.7843C8.57418 18.7358 8.38815 18.6488 8.21845 18.5269C8.06844 18.4187 7.94468 18.2666 7.85916 18.0855C7.77234 17.8915 7.72912 17.6745 7.73361 17.4553C7.73361 17.1618 7.79894 16.9056 7.92755 16.6867C8.0582 16.4691 8.23784 16.2995 8.46648 16.1792C8.69614 16.0589 8.9605 16 9.25957 16C9.56986 16 9.83524 16.0601 10.0547 16.1828C10.2762 16.3055 10.4466 16.4703 10.565 16.6759C10.616 16.761 10.6574 16.85 10.6894 16.9428C10.7642 17.1598 10.5724 17.3567 10.343 17.3567C10.1494 17.3567 9.99258 17.2047 9.88118 17.0464C9.81407 16.9504 9.72779 16.8756 9.63008 16.8287C9.5103 16.7711 9.38174 16.7433 9.25242 16.7469C9.03195 16.7469 8.85741 16.807 8.72982 16.9297C8.66981 16.9838 8.62145 17.0538 8.58864 17.1341C8.55584 17.2143 8.53952 17.3025 8.54099 17.3915C8.54099 17.5371 8.58999 17.6561 8.68797 17.7524C8.80992 17.8588 8.95101 17.9308 9.10034 17.9628L9.73419 18.1348C9.95569 18.195 10.1486 18.2791 10.3119 18.3886C10.4694 18.49 10.6014 18.6385 10.6947 18.8192C10.7865 18.9972 10.8325 19.2221 10.8325 19.4927C10.8325 19.7898 10.7682 20.0532 10.6406 20.2817C10.5047 20.517 10.3135 20.7005 10.0904 20.8097C9.85158 20.9359 9.55965 20.9997 9.21466 20.9997C8.9554 20.9997 8.7288 20.9636 8.53589 20.8914C8.35814 20.8286 8.19243 20.7257 8.04799 20.5884C7.92337 20.4644 7.82248 20.3106 7.75199 20.1373ZM4.58372 20.0977C4.56616 20.0417 4.55131 19.9848 4.53923 19.927C4.49473 19.7145 4.67546 19.5372 4.89258 19.5372H4.94391C5.13045 19.5372 5.27492 19.6936 5.35537 19.8619C5.40237 19.9563 5.47039 20.0338 5.55207 20.086C5.63375 20.1381 5.72598 20.163 5.81877 20.1578C6.01271 20.1578 6.15561 20.0916 6.24951 19.9605C6.34239 19.8282 6.38935 19.6418 6.38935 19.4001V16.5023C6.38935 16.2794 6.57009 16.0986 6.79304 16.0986C7.01599 16.0986 7.19672 16.2794 7.19672 16.5023V19.376C7.19672 19.9052 7.07526 20.3069 6.83233 20.5848C6.59043 20.8614 6.25564 20.9997 5.82694 20.9997C5.62946 21.0039 5.43298 20.9656 5.24718 20.8866C5.09086 20.8163 4.94919 20.7072 4.83175 20.5667C4.72291 20.4318 4.63852 20.2722 4.58372 20.0977ZM13.8629 18.1913V18.8192C13.8629 19.1271 13.8231 19.3844 13.7435 19.5901C13.6757 19.7803 13.5613 19.9424 13.4149 20.0556C13.2703 20.1584 13.104 20.2109 12.9351 20.2071C12.7663 20.2105 12.6001 20.158 12.4554 20.0556C12.3101 19.9416 12.1964 19.7797 12.1288 19.5901C12.043 19.346 12.0023 19.0832 12.0093 18.8192V18.1913C12.0093 17.881 12.0492 17.6249 12.1288 17.4204C12.1964 17.2308 12.3101 17.0689 12.4554 16.955C12.5994 16.8503 12.7659 16.7965 12.9351 16.7998C13.1158 16.7998 13.275 16.8515 13.4149 16.955C13.5613 17.0681 13.6757 17.2302 13.7435 17.4204C13.8231 17.6249 13.8629 17.881 13.8629 18.1913ZM14.6826 18.8156V18.1986C14.6826 17.7451 14.6121 17.3555 14.4733 17.0283C14.342 16.71 14.1321 16.4459 13.8711 16.2706C13.6129 16.095 13.3005 16.006 12.9361 16.006C12.5728 16.006 12.2604 16.095 11.9971 16.2706C11.7361 16.4443 11.5263 16.7078 11.3959 17.0259C11.2561 17.3519 11.1867 17.7427 11.1867 18.1986V18.8156C11.1867 19.2666 11.2561 19.6563 11.3959 19.9858C11.5357 20.3117 11.7358 20.5631 11.9971 20.7387C12.2604 20.9131 12.5728 20.9997 12.9361 20.9997C13.3005 20.9997 13.6129 20.9131 13.8721 20.7387C14.1334 20.5631 14.3335 20.3117 14.4733 19.9858C14.6121 19.6563 14.6826 19.2666 14.6826 18.8156ZM16.0003 17.691C15.9997 17.691 15.9993 17.6915 15.9993 17.692V20.5276C15.9993 20.7378 15.8288 20.9083 15.6186 20.9083C15.4083 20.9083 15.2378 20.7378 15.2378 20.5276V16.5245C15.2378 16.2893 15.4285 16.0986 15.6637 16.0986C15.818 16.0986 15.9602 16.182 16.0354 16.3167L17.6959 19.2873C17.6996 19.2938 17.7064 19.2978 17.7139 19.2978C17.7253 19.2978 17.7345 19.2886 17.7345 19.2773V16.4814C17.7345 16.27 17.9058 16.0986 18.1172 16.0986C18.3286 16.0986 18.5 16.27 18.5 16.4814V20.4875C18.5 20.7206 18.3111 20.9095 18.0781 20.9095C17.9252 20.9095 17.7842 20.8268 17.7097 20.6933L16.0489 17.7195C16.0391 17.7019 16.0205 17.691 16.0003 17.691Z" stroke="black" stroke-opacity="0.2" stroke-width="0.3"/>
</svg>
