<svg xmlns="http://www.w3.org/2000/svg" width="24" height="24" viewBox="0 0 24 24" fill="none">
  <path fill-rule="evenodd" clip-rule="evenodd" d="M2.6001 5C2.6001 3.89543 3.49553 3 4.6001 3H8.6001C9.70467 3 10.6001 3.89543 10.6001 5V9C10.6001 10.1046 9.70467 11 8.6001 11H4.6001C3.49553 11 2.6001 10.1046 2.6001 9V5ZM4.6001 5.5C4.6001 5.22386 4.82396 5 5.1001 5H8.1001C8.37624 5 8.6001 5.22386 8.6001 5.5V8.5C8.6001 8.77614 8.37624 9 8.1001 9H5.1001C4.82396 9 4.6001 8.77614 4.6001 8.5V5.5Z" fill="currentColor"/>
  <path d="M19.4751 8C20.0964 8 20.6001 8.50368 20.6001 9.125C20.6001 9.74632 20.0964 10.25 19.4751 10.25H13.7251C13.1038 10.25 12.6001 9.74632 12.6001 9.125C12.6001 8.50368 13.1038 8 13.7251 8H19.4751ZM19.4751 4C20.0964 4 20.6001 4.50368 20.6001 5.125C20.6001 5.74632 20.0964 6.25 19.4751 6.25H13.7251C13.1038 6.25 12.6001 5.74632 12.6001 5.125C12.6001 4.50368 13.1038 4 13.7251 4H19.4751Z" fill="currentColor"/>
  <path fill-rule="evenodd" clip-rule="evenodd" d="M2.6001 15C2.6001 13.8954 3.49553 13 4.6001 13H8.6001C9.70467 13 10.6001 13.8954 10.6001 15V19C10.6001 20.1046 9.70467 21 8.6001 21H4.6001C3.49553 21 2.6001 20.1046 2.6001 19V15ZM4.6001 15.5C4.6001 15.2239 4.82396 15 5.1001 15H8.1001C8.37624 15 8.6001 15.2239 8.6001 15.5V18.5C8.6001 18.7761 8.37624 19 8.1001 19H5.1001C4.82396 19 4.6001 18.7761 4.6001 18.5V15.5Z" fill="currentColor"/>
  <path d="M19.4751 18C20.0964 18 20.6001 18.5037 20.6001 19.125C20.6001 19.7463 20.0964 20.25 19.4751 20.25H13.7251C13.1038 20.25 12.6001 19.7463 12.6001 19.125C12.6001 18.5037 13.1038 18 13.7251 18H19.4751ZM19.4751 14C20.0964 14 20.6001 14.5037 20.6001 15.125C20.6001 15.7463 20.0964 16.25 19.4751 16.25H13.7251C13.1038 16.25 12.6001 15.7463 12.6001 15.125C12.6001 14.5037 13.1038 14 13.7251 14H19.4751Z" fill="currentColor"/>
</svg>
