<svg width="160" height="30" viewBox="0 0 160 30" fill="none" xmlns="http://www.w3.org/2000/svg">
<path fill-rule="evenodd" clip-rule="evenodd" d="M22.8009 2.26548C22.8009 1.48402 22.1674 0.850525 21.3859 0.850525H18.2897C17.5083 0.850525 16.8748 1.48402 16.8748 2.26548V5.33121C16.8748 6.11267 17.5083 6.74616 18.2897 6.74616H20.2356C21.0171 6.74616 21.6506 7.37966 21.6506 8.16112V27.7343C21.6506 28.5158 22.2841 29.1493 23.0655 29.1493H26.1618C26.9432 29.1493 27.5767 28.5158 27.5767 27.7343V8.1608C27.5767 7.37934 26.9432 6.74584 26.1618 6.74584H24.2159C23.4344 6.74584 22.8009 6.11235 22.8009 5.33089V2.26548ZM10.9085 2.26557C10.9085 1.48411 10.275 0.850614 9.49357 0.850614H6.39734C5.61589 0.850614 4.98239 1.48411 4.98239 2.26557V5.33107C4.98239 6.11252 4.34889 6.74602 3.56744 6.74602H1.41495C0.633496 6.74602 0 7.37952 0 8.16097V27.7345C0 28.5159 0.633496 29.1494 1.41495 29.1494H4.51118C5.29264 29.1494 5.92613 28.5159 5.92613 27.7345V8.1612C5.92613 7.37975 6.55963 6.74625 7.34108 6.74625H9.49357C10.275 6.74625 10.9085 6.11275 10.9085 5.3313V2.26557ZM16.7929 13.5512C16.7929 12.7698 16.1594 12.1363 15.3779 12.1363H12.2817C11.5002 12.1363 10.8667 12.7698 10.8667 13.5512V22.1757C10.8667 22.9572 11.5002 23.5907 12.2817 23.5907H15.3779C16.1594 23.5907 16.7929 22.9572 16.7929 22.1757V13.5512Z" fill="#2B6CB0"/>
<path d="M39.1973 7.26429H46.1977C49.1632 7.26429 50.7674 8.82462 50.7674 11.0711C50.7894 11.7732 50.5992 12.4656 50.2218 13.0573C49.8444 13.649 49.2975 14.1125 48.6527 14.3868V14.4599C49.4866 14.7138 50.2143 15.2355 50.7238 15.9447C51.2332 16.6539 51.4962 17.5114 51.4724 18.3852C51.4724 20.8963 49.7361 22.8711 46.5866 22.8711H39.1973V7.26429ZM46.2463 13.6066C47.3644 13.6066 48.1666 12.7777 48.1666 11.5169C48.1666 10.2561 47.3644 9.42716 46.2463 9.42716H41.8051V13.6066H46.2463ZM46.5623 20.7257C47.8992 20.7257 48.8715 19.7017 48.8715 18.2145C48.8715 16.7273 47.8992 15.7277 46.5623 15.7277H41.8051V20.7257H46.5623Z" fill="#2B6CB0"/>
<path d="M54.7295 9.12067H53.2641V6.76624H57.2991V22.8607H54.7226L54.7295 9.12067Z" fill="#2B6CB0"/>
<path d="M59.6847 17.093C59.6847 13.5579 62.289 10.9492 65.8864 10.9492C69.4839 10.9492 72.1091 13.5335 72.1091 17.093C72.1091 20.6525 69.5082 23.2124 65.8864 23.2124C62.2647 23.2124 59.6847 20.6281 59.6847 17.093ZM65.2059 20.8963H66.5948C68.1748 20.8963 69.5603 19.2141 69.5603 17.093C69.5603 14.9719 68.1713 13.2618 66.5948 13.2618H65.2059C63.6259 13.2618 62.2404 15.0033 62.2404 17.093C62.2404 19.1827 63.6259 20.8963 65.2059 20.8963Z" fill="#2B6CB0"/>
<path d="M73.7828 17.0686C73.7828 13.4603 76.2656 10.9492 79.8387 10.9492C82.707 10.9492 84.9675 12.4364 85.3321 15.4769H82.8285C82.5854 13.941 81.4916 13.2583 80.3735 13.2583H79.1581C77.6024 13.2583 76.3385 14.965 76.3385 17.0895C76.3385 19.2141 77.6024 20.9416 79.1581 20.9416H80.3735C80.9948 20.944 81.5944 20.7124 82.0536 20.2925C82.5127 19.8726 82.798 19.295 82.8528 18.6742H85.3564C85.0092 21.673 82.7313 23.2333 79.8005 23.2333C76.2378 23.2124 73.7828 20.6769 73.7828 17.0686Z" fill="#2B6CB0"/>
<path d="M87.6621 6.76624H90.2144V15.6441H92.0652L95.5168 11.2801H98.4336L94.1799 16.6681L98.6281 22.8607H95.5654L91.8464 17.7408H90.2144V22.8607H87.6621V6.76624Z" fill="#2B6CB0"/>
<path d="M99.7948 19.3847H102.25C102.371 20.4087 103.003 21.067 104.333 21.067H105.941C107.083 21.067 107.618 20.4819 107.618 19.7017C107.618 18.9215 107.181 18.4583 106.136 18.3085L103.434 17.9602C101.149 17.6921 100.128 16.3268 100.128 14.547C100.128 12.2065 101.864 10.9387 104.965 10.9387C107.934 10.9387 109.733 12.1334 109.827 14.7908H107.372C107.25 13.7912 106.837 13.0842 105.573 13.0842H104.111C103.017 13.0842 102.507 13.6693 102.507 14.4251C102.507 15.1809 102.993 15.6929 104.038 15.8392L106.764 16.1875C108.976 16.4556 109.997 17.6503 109.997 19.5032C109.997 21.8924 108.417 23.209 104.917 23.209C101.531 23.2124 99.8886 21.9203 99.7948 19.3847Z" fill="#2B6CB0"/>
<path d="M111.601 17.0686C111.601 13.4603 114.08 10.9492 117.657 10.9492C120.525 10.9492 122.786 12.4364 123.15 15.4769H120.647C120.404 13.941 119.31 13.2583 118.192 13.2583H116.976C115.417 13.2583 114.153 14.965 114.153 17.0895C114.153 19.2141 115.417 20.9416 116.976 20.9416H118.192C118.813 20.944 119.413 20.7124 119.872 20.2925C120.331 19.8726 120.616 19.295 120.671 18.6742H123.175C122.828 21.673 120.55 23.2333 117.619 23.2333C114.06 23.2124 111.601 20.6769 111.601 17.0686Z" fill="#2B6CB0"/>
<path d="M124.796 17.093C124.796 13.5579 127.397 10.9492 130.995 10.9492C134.592 10.9492 137.221 13.5335 137.221 17.093C137.221 20.6525 134.62 23.2124 130.995 23.2124C127.369 23.2124 124.796 20.6281 124.796 17.093ZM130.314 20.8963H131.703C133.283 20.8963 134.672 19.2141 134.672 17.093C134.672 14.9719 133.283 13.2618 131.703 13.2618H130.314C128.734 13.2618 127.349 15.0033 127.349 17.093C127.349 19.1827 128.741 20.8963 130.321 20.8963H130.314Z" fill="#2B6CB0"/>
<path d="M139.339 18.5802V11.294H141.891V18.1448C141.891 19.8271 142.742 20.8267 143.86 20.8267H145.249C146.44 20.8267 147.51 19.7296 147.51 18.1448V11.294H150.065V22.8746H147.583V21.2899C146.888 22.4845 145.662 23.2159 143.791 23.2159C140.992 23.2124 139.339 21.579 139.339 18.5802Z" fill="#2B6CB0"/>
<path d="M154.312 20.1649V13.5474H152.076V11.294H154.312V8.04794H156.889V11.294H159.903V13.537H156.889V19.437C156.889 20.1928 157.132 20.5585 157.958 20.5585H160V22.8746H157.222C155.354 22.8711 154.312 21.8959 154.312 20.1649Z" fill="#2B6CB0"/>
</svg>
