<svg width="24" height="24" viewBox="0 0 24 24" fill="none" xmlns="http://www.w3.org/2000/svg">
<path d="M12.493 17.0191L8.60265 19.3652C8.45778 19.4499 8.3126 19.4854 8.1671 19.472C8.02158 19.4585 7.88985 19.4095 7.7719 19.3249C7.65396 19.2402 7.56295 19.1297 7.49885 18.9931C7.43473 18.8566 7.42447 18.7056 7.46807 18.5403L8.50075 14.123L5.06615 11.1499C4.93795 11.0384 4.85622 10.9092 4.82097 10.7624C4.78572 10.6156 4.79501 10.473 4.84885 10.3346C4.9027 10.1961 4.98026 10.083 5.08155 9.99514C5.18283 9.90732 5.32129 9.84995 5.49692 9.82304L10.0296 9.42689L11.7892 5.25574C11.8533 5.10062 11.9504 4.98588 12.0805 4.91151C12.2107 4.83716 12.3482 4.79999 12.493 4.79999C12.6379 4.79999 12.7754 4.83716 12.9055 4.91151C13.0356 4.98588 13.1327 5.10062 13.1968 5.25574L14.9564 9.42689L19.4891 9.82304C19.6648 9.84995 19.8032 9.90732 19.9045 9.99514C20.0058 10.083 20.0833 10.1961 20.1372 10.3346C20.191 10.473 20.2003 10.6156 20.1651 10.7624C20.1298 10.9092 20.0481 11.0384 19.9199 11.1499L16.4853 14.123L17.518 18.5403C17.5616 18.7056 17.5513 18.8566 17.4872 18.9931C17.4231 19.1297 17.3321 19.2402 17.2141 19.3249C17.0962 19.4095 16.9645 19.4585 16.8189 19.472C16.6734 19.4854 16.5283 19.4499 16.3834 19.3652L12.493 17.0191Z" fill="#B1B5C3"/>
<path d="M12.493 17.0191L8.60265 19.3652C8.45778 19.4499 8.3126 19.4854 8.1671 19.472C8.02158 19.4585 7.88985 19.4095 7.7719 19.3249C7.65396 19.2402 7.56295 19.1297 7.49885 18.9931C7.43473 18.8566 7.42447 18.7056 7.46807 18.5403L8.50075 14.123L5.06615 11.1499C4.93795 11.0384 4.85622 10.9092 4.82097 10.7624C4.78572 10.6156 4.79501 10.473 4.84885 10.3346C4.9027 10.1961 4.98026 10.083 5.08155 9.99514C5.18283 9.90732 5.32129 9.84995 5.49692 9.82304L10.0296 9.42689L11.7892 5.25574C11.8533 5.10062 11.9504 4.98588 12.0805 4.91151C12.2107 4.83716 12.3482 4.79999 12.493 4.79999C12.6379 4.79999 12.7754 4.83716 12.9055 4.91151C13.0356 4.98588 13.1327 5.10062 13.1968 5.25574L14.9564 9.42689L19.4891 9.82304C19.6648 9.84995 19.8032 9.90732 19.9045 9.99514C20.0058 10.083 20.0833 10.1961 20.1372 10.3346C20.191 10.473 20.2003 10.6156 20.1651 10.7624C20.1298 10.9092 20.0481 11.0384 19.9199 11.1499L16.4853 14.123L17.518 18.5403C17.5616 18.7056 17.5513 18.8566 17.4872 18.9931C17.4231 19.1297 17.3321 19.2402 17.2141 19.3249C17.0962 19.4095 16.9645 19.4585 16.8189 19.472C16.6734 19.4854 16.5283 19.4499 16.3834 19.3652L12.493 17.0191Z" fill="#ECC94B"/>
</svg>
